<?xml version="1.0" encoding="utf-8"?>
<!-- Generator: Adobe Illustrator 22.0.1, SVG Export Plug-In . SVG Version: 6.00 Build 0)  -->
<svg version="1.1" id="Capa_1" xmlns="http://www.w3.org/2000/svg" xmlns:xlink="http://www.w3.org/1999/xlink" x="0px" y="0px"
	 viewBox="0 0 566.9 425.2" style="enable-background:new 0 0 566.9 425.2;" xml:space="preserve">
<style type="text/css">
	.st0{fill:#FFFFFF;}
	.st1{fill:url(#SVGID_1_);}
	.st2{fill:url(#SVGID_2_);}
	.st3{fill:url(#SVGID_3_);}
	.st4{fill:url(#SVGID_4_);}
	.st5{fill:url(#SVGID_5_);}
</style>
<path class="st0" d="M37.9,2.7l490.6,0c21.2,0,38.4,13.5,38.4,29.7v363.1c0,16.2-17.2,29.7-38.4,29.7H37.9
	C17.2,425.2,0,411.7,0,395.5V32.4C0,16.1,17.2,2.7,37.9,2.7"/>
<g>
	<path class="st0" d="M433.7,282.2c0,24.9-20.3,45.2-45.2,45.2H142.3V148.3c0-24.9,20.3-45.2,45.3-45.2h246.1V282.2z"/>
	
		<linearGradient id="SVGID_1_" gradientUnits="userSpaceOnUse" x1="6.1991" y1="511.5433" x2="9.4997" y2="511.5433" gradientTransform="matrix(24.2543 0 0 -15.022 187.3797 7912.1157)">
		<stop  offset="0" style="stop-color:#047A41"/>
		<stop  offset="0.2285" style="stop-color:#06883F"/>
		<stop  offset="0.7433" style="stop-color:#41A837"/>
		<stop  offset="1" style="stop-color:#60B236"/>
	</linearGradient>
	<path class="st1" d="M353.6,236.3h18.7c0.5,0,1.8-0.2,2.3-0.2c3.5-0.7,6.6-3.9,6.6-8.4c0-4.3-3-7.5-6.6-8.4
		c-0.5-0.2-1.6-0.2-2.3-0.2h-18.7V236.3z"/>
	
		<linearGradient id="SVGID_2_" gradientUnits="userSpaceOnUse" x1="2.9936" y1="523.4931" x2="4.1316" y2="523.4931" gradientTransform="matrix(70.2592 0 0 -170.7188 127.414 89585.4531)">
		<stop  offset="0" style="stop-color:#047A41"/>
		<stop  offset="0.2285" style="stop-color:#06883F"/>
		<stop  offset="0.7433" style="stop-color:#41A837"/>
		<stop  offset="1" style="stop-color:#60B236"/>
	</linearGradient>
	<path class="st2" d="M370.2,118.2c-17.8,0-32.4,14.4-32.4,32.4v33.7h45.8c1.1,0,2.3,0,3.2,0.2c10.3,0.6,18,5.9,18,15.1
		c0,7.3-5.2,13.5-14.8,14.8v0.4c10.5,0.7,18.5,6.6,18.5,15.7c0,9.8-8.9,16.2-20.6,16.2h-50.2v65.9h47.5c17.8,0,32.4-14.4,32.4-32.4
		V118.2H370.2L370.2,118.2z"/>
	
		<linearGradient id="SVGID_3_" gradientUnits="userSpaceOnUse" x1="6.6956" y1="510.5588" x2="10.2977" y2="510.5588" gradientTransform="matrix(22.22 0 0 -13.7702 188.9469 7232.2046)">
		<stop  offset="0" style="stop-color:#047A41"/>
		<stop  offset="0.2285" style="stop-color:#06883F"/>
		<stop  offset="0.7433" style="stop-color:#41A837"/>
		<stop  offset="1" style="stop-color:#60B236"/>
	</linearGradient>
	<path class="st3" d="M378.9,201.7c0-4.3-3-7.1-6.6-7.7c-0.4,0-1.3-0.2-1.8-0.2h-16.9v15.7h16.9c0.5,0,1.6,0,1.8-0.2
		C375.9,208.8,378.9,206,378.9,201.7L378.9,201.7z"/>
	
		<linearGradient id="SVGID_4_" gradientUnits="userSpaceOnUse" x1="2.6839" y1="523.4923" x2="3.841" y2="523.4923" gradientTransform="matrix(70.2592 0 0 -170.5623 -30.034 89503.2969)">
		<stop  offset="0" style="stop-color:#28306A"/>
		<stop  offset="0.4751" style="stop-color:#034F95"/>
		<stop  offset="0.8261" style="stop-color:#0A67B1"/>
		<stop  offset="1" style="stop-color:#0E6FB7"/>
	</linearGradient>
	<path class="st4" d="M191,118.2c-17.8,0-32.4,14.4-32.4,32.4v80c9.1,4.5,18.5,7.3,28,7.3c11.2,0,17.3-6.8,17.3-16.1v-37.8h27.8
		v37.6c0,14.6-9.1,26.5-39.9,26.5c-18.7,0-33.3-4.1-33.3-4.1v68.2h47.6c17.8,0,32.4-14.4,32.4-32.4V118.2H191L191,118.2z"/>
	
		<linearGradient id="SVGID_5_" gradientUnits="userSpaceOnUse" x1="2.8302" y1="523.4924" x2="3.9537" y2="523.4924" gradientTransform="matrix(70.2592 0 0 -170.8753 48.841 89667.3594)">
		<stop  offset="0" style="stop-color:#6C2C30"/>
		<stop  offset="0.1735" style="stop-color:#892831"/>
		<stop  offset="0.5731" style="stop-color:#BE1A34"/>
		<stop  offset="0.8585" style="stop-color:#DC0937"/>
		<stop  offset="1" style="stop-color:#E5083A"/>
	</linearGradient>
	<path class="st5" d="M280.6,118.2c-17.8,0-32.4,14.4-32.4,32.4V193c8.2-6.9,22.4-11.4,45.4-10.3c12.3,0.5,25.5,3.9,25.5,3.9v13.7
		c-6.6-3.4-14.4-6.4-24.6-7.1c-17.5-1.3-28,7.3-28,22.3c0,15.1,10.5,23.7,28,22.3c10.2-0.7,18-3.9,24.6-7.1v13.7
		c0,0-13,3.4-25.5,3.9c-23,1.1-37.2-3.4-45.4-10.3v74.8h47.5c17.8,0,32.4-14.4,32.4-32.4V118.2H280.6L280.6,118.2z"/>
</g>
</svg>
